<svg width="16" height="18" viewBox="0 0 16 18" fill="none" xmlns="http://www.w3.org/2000/svg">
<path d="M15.1111 18H0.888889C0.653141 18 0.427048 17.9052 0.260349 17.7364C0.0936505 17.5676 0 17.3387 0 17.1V0.9C0 0.661305 0.0936505 0.432387 0.260349 0.263604C0.427048 0.0948211 0.653141 0 0.888889 0H15.1111C15.3469 0 15.573 0.0948211 15.7397 0.263604C15.9064 0.432387 16 0.661305 16 0.9V17.1C16 17.3387 15.9064 17.5676 15.7397 17.7364C15.573 17.9052 15.3469 18 15.1111 18ZM5.33333 3.6H3.55556V5.4C3.55556 6.59347 4.02381 7.73807 4.8573 8.58198C5.6908 9.42589 6.82126 9.9 8 9.9C9.17874 9.9 10.3092 9.42589 11.1427 8.58198C11.9762 7.73807 12.4444 6.59347 12.4444 5.4V3.6H10.6667V5.4C10.6667 6.11608 10.3857 6.80284 9.88562 7.30919C9.38552 7.81554 8.70724 8.1 8 8.1C7.29276 8.1 6.61448 7.81554 6.11438 7.30919C5.61428 6.80284 5.33333 6.11608 5.33333 5.4V3.6Z" fill="#282627"/>
</svg>
