<svg width="65" height="71" viewBox="0 0 65 71" fill="none" xmlns="http://www.w3.org/2000/svg">
<g clip-path="url(#clip0_2997_682)">
<path d="M44.3312 0.036438C46.8115 1.41212 47.7907 3.57601 48.2222 6.33842C49.4577 14.2426 50.8943 22.1155 52.3253 29.9883C53.3635 35.7065 51.6319 37.9257 45.9226 37.933C36.9825 37.9441 28.0423 37.957 19.1022 37.9275C14.385 37.9128 12.386 35.6494 13.155 31.0012C14.5934 22.2996 16.2106 13.6275 17.6398 4.92591C17.9939 2.76018 19.4562 1.49315 20.7619 0.036438C28.6177 0.036438 36.4753 0.036438 44.3312 0.036438Z" />
<path d="M12.5389 42.5445C14.654 41.1264 16.7084 40.9275 18.8438 40.9331C28.1565 40.9625 37.4691 40.9533 46.7817 40.9386C48.908 40.9349 50.9918 41.0325 52.764 42.3769C53.5237 41.6992 53.3965 40.8133 53.6104 40.0564C54.6007 36.5684 57.7799 33.8834 61.3058 33.6163C63.196 33.4727 64.6288 34.2093 64.8962 36.1578C65.1433 37.946 64.1309 39.2019 62.3274 39.3861C59.6885 39.655 59.0486 41.2185 59.1132 43.526C59.1814 45.9846 59.1869 48.4505 59.1132 50.909C59.0025 54.6217 56.561 56.9403 52.8414 56.9513C47.82 56.9642 42.7967 57.0269 37.7771 56.9145C36.0805 56.8758 35.6398 57.3565 35.649 59.0453C35.6748 64.2054 35.5918 64.2036 40.77 64.2054C42.2305 64.2054 43.6984 64.1318 45.1497 64.2423C46.9035 64.3767 48.1408 65.3196 48.1187 67.1704C48.0984 68.9826 46.9588 70.0525 45.1442 70.0617C36.9269 70.1041 28.7097 70.1023 20.4924 70.0617C18.676 70.0525 17.54 68.9863 17.5142 67.1741C17.4902 65.3196 18.7239 64.3325 20.4777 64.2496C22.9377 64.1336 25.4125 64.1023 27.8688 64.2423C29.6151 64.3417 29.9821 63.6972 29.9803 62.06C29.9747 56.9532 30.0466 56.9532 24.8518 56.9532C20.7432 56.9532 16.6346 56.9734 12.526 56.9477C9.14759 56.9256 6.67282 54.5978 6.53452 51.1908C6.42387 48.4597 6.48842 45.7231 6.5087 42.9883C6.52345 40.968 5.71574 39.6973 3.58029 39.434C1.5186 39.1798 0.358666 37.9865 0.804936 35.9073C1.25674 33.806 2.90904 33.3475 4.85087 33.7158C9.51825 34.6016 11.8141 37.6642 12.5389 42.5445Z" />
</g>
<defs>
<clipPath id="clip0_2997_682">
<rect width="64.2185" height="70.0566" fill="white" transform="translate(0.716797 0.036438)"/>
</clipPath>
</defs>
</svg>
