<svg width="74" height="53" viewBox="0 0 74 53" fill="none" xmlns="http://www.w3.org/2000/svg">
<path d="M0.0634015 20.3968C0.23006 20.0653 0.410127 19.7395 0.559545 19.4003C1.64953 16.9331 3.95209 15.5491 6.6531 15.7418C9.17404 15.923 11.3598 17.6732 11.9785 20.258C12.6796 23.1898 13.1949 26.1659 13.8156 29.1169C14.3826 31.8135 15.9055 33.0953 18.618 33.0972C30.7687 33.1107 42.9213 33.1107 55.0721 33.0972C57.7807 33.0933 59.2979 31.8135 59.8687 29.1111C60.4319 26.4415 60.9568 23.7622 61.5104 21.0907C62.1579 17.9585 64.1405 16.004 66.8914 15.7611C69.9544 15.4913 72.1095 16.9311 73.368 20.0768C73.4159 20.1983 73.5347 20.2908 73.6209 20.3968C73.6209 21.6439 73.6209 22.8929 73.6209 24.14C73.4313 26.2314 73.2282 28.3227 73.0577 30.416C72.914 32.1836 72.9294 33.9704 72.6688 35.7186C71.962 40.468 68.0618 43.5848 62.8782 43.5925C52.0703 43.6099 41.2605 43.5983 30.4526 43.5983C23.9491 43.5983 17.4437 43.6079 10.9402 43.5945C4.8984 43.5829 1.25491 40.0652 0.869873 33.9993C0.661072 30.709 0.333503 27.4245 0.0595703 24.1381C0.0634015 22.8929 0.0634015 21.6439 0.0634015 20.3968Z" />
<path d="M16.288 45.9325C15.8455 47.6422 15.5428 49.1437 15.0601 50.5855C14.4548 52.3935 12.6694 53.2609 10.9358 52.7308C9.16576 52.1892 8.21754 50.5624 8.58533 48.6985C9.13128 45.9325 9.13128 45.9325 11.8629 45.9325C13.2403 45.9325 14.6214 45.9325 16.288 45.9325Z" />
<path d="M57.3921 45.9267C59.7176 45.9267 61.7654 45.9152 63.8132 45.9441C64.0412 45.9479 64.4281 46.1503 64.4684 46.3238C64.7423 47.5266 65.1599 48.7525 65.1177 49.9572C65.0641 51.557 63.6389 52.7443 62.0681 52.887C60.5912 53.02 59.12 52.116 58.6277 50.6029C58.1583 49.1572 57.8423 47.6596 57.3921 45.9267Z" />
<path d="M36.5673 0.560758C43.3141 0.560758 50.0628 0.520281 56.8096 0.572324C63.2786 0.620511 67.6979 6.32017 66.1942 12.6232C66.0984 13.026 65.6769 13.531 65.2977 13.6563C61.817 14.8032 59.8477 17.1817 59.1964 20.7688C58.7252 23.3594 58.1735 25.9365 57.6276 28.5117C57.2444 30.3177 56.6812 30.7803 54.8978 30.7823C42.839 30.7881 30.7803 30.79 18.7215 30.7823C17.0358 30.7803 16.4362 30.2888 16.078 28.5888C15.5052 25.871 14.9899 23.1416 14.4229 20.4219C13.6528 16.723 11.4269 14.3907 7.75464 13.5464C7.01138 13.3749 6.76235 13.0935 6.61102 12.3784C5.30074 6.1891 9.68557 0.624366 16.0397 0.572324C22.8822 0.518353 29.7248 0.560758 36.5673 0.560758Z" />
</svg>
